<svg width="35" height="33" viewBox="0 0 35 33" fill="none" xmlns="http://www.w3.org/2000/svg">
<rect width="35" height="33" rx="5" fill="#FFFAFA"/>
<path d="M12.4396 14.4787C12.3394 14.58 12.2187 14.6613 12.0845 14.7176C11.9504 14.774 11.8055 14.8043 11.6587 14.8068C11.5118 14.8092 11.3659 14.7837 11.2297 14.7319C11.0936 14.68 10.9698 14.6028 10.866 14.5049C10.7621 14.4069 10.6802 14.2903 10.6252 14.1619C10.5702 14.0335 10.5432 13.8959 10.5458 13.7575C10.5484 13.619 10.5805 13.4825 10.6403 13.356C10.7001 13.2295 10.7863 13.1156 10.8937 13.0212L16.7271 7.5212C16.9322 7.32808 17.2101 7.2196 17.5 7.2196C17.7898 7.2196 18.0678 7.32808 18.2729 7.5212L24.1062 13.0212C24.2137 13.1156 24.2999 13.2295 24.3597 13.356C24.4194 13.4825 24.4516 13.619 24.4542 13.7575C24.4568 13.8959 24.4298 14.0335 24.3748 14.1619C24.3197 14.2903 24.2379 14.4069 24.134 14.5049C24.0301 14.6028 23.9064 14.68 23.7702 14.7319C23.634 14.7837 23.4882 14.8092 23.3413 14.8068C23.1945 14.8043 23.0496 14.774 22.9155 14.7176C22.7813 14.6613 22.6605 14.58 22.5604 14.4787L18.5937 10.7387V24.0624C18.5937 24.336 18.4785 24.5983 18.2734 24.7917C18.0683 24.985 17.7901 25.0937 17.5 25.0937C17.2099 25.0937 16.9317 24.985 16.7266 24.7917C16.5215 24.5983 16.4062 24.336 16.4062 24.0624V10.7387L12.4396 14.4787Z" fill="#222222"/>
</svg>
