<svg xmlns="http://www.w3.org/2000/svg" xmlns:xlink="http://www.w3.org/1999/xlink" width="1080" zoomAndPan="magnify" viewBox="0 0 810 809.999993" height="1080" preserveAspectRatio="xMidYMid meet" version="1.0"><defs><clipPath id="f22904425c"><path d="M 45.90625 476 L 142 476 L 142 573 L 45.90625 573 Z M 45.90625 476 " clip-rule="nonzero"/></clipPath><clipPath id="1d9fec0018"><path d="M 45.90625 476 L 106 476 L 106 537 L 45.90625 537 Z M 45.90625 476 " clip-rule="nonzero"/></clipPath><clipPath id="326b435d15"><path d="M 45.90625 237 L 142 237 L 142 334 L 45.90625 334 Z M 45.90625 237 " clip-rule="nonzero"/></clipPath><clipPath id="c644b03492"><path d="M 45.90625 237 L 106 237 L 106 298 L 45.90625 298 Z M 45.90625 237 " clip-rule="nonzero"/></clipPath><clipPath id="df684a1a31"><path d="M 620 333 L 764.40625 333 L 764.40625 477 L 620 477 Z M 620 333 " clip-rule="nonzero"/></clipPath><clipPath id="3450d3ad60"><path d="M 261 117.726562 L 358 117.726562 L 358 214 L 261 214 Z M 261 117.726562 " clip-rule="nonzero"/></clipPath><clipPath id="d58076c073"><path d="M 261 117.726562 L 322 117.726562 L 322 178 L 261 178 Z M 261 117.726562 " clip-rule="nonzero"/></clipPath><clipPath id="10c1b6637d"><path d="M 261 596 L 358 596 L 358 692.226562 L 261 692.226562 Z M 261 596 " clip-rule="nonzero"/></clipPath></defs><path fill="#23aae6" d="M 524.917969 536.632812 C 521.179688 536.632812 517.5 534.890625 515.160156 531.621094 C 511.316406 526.242188 512.566406 518.765625 517.945312 514.921875 L 671.953125 404.976562 L 517.945312 295.027344 C 512.566406 291.183594 511.316406 283.710938 515.160156 278.332031 C 519.003906 272.953125 526.484375 271.707031 531.867188 275.546875 L 713.160156 404.976562 L 531.867188 534.402344 C 529.757812 535.910156 527.324219 536.632812 524.917969 536.632812 Z M 524.917969 536.632812 " fill-opacity="1" fill-rule="nonzero"/><path fill="#23aae6" d="M 93.792969 536.632812 C 91.699219 536.632812 89.574219 536.082031 87.644531 534.925781 C 81.972656 531.523438 80.132812 524.171875 83.539062 518.503906 L 299.085938 159.441406 C 302.488281 153.773438 309.84375 151.933594 315.515625 155.335938 C 321.1875 158.738281 323.027344 166.089844 319.625 171.757812 L 104.074219 530.820312 C 101.828125 534.5625 97.863281 536.632812 93.792969 536.632812 Z M 93.792969 536.632812 " fill-opacity="1" fill-rule="nonzero"/><path fill="#23aae6" d="M 309.347656 656.320312 C 307.378906 656.320312 305.382812 655.835938 303.539062 654.8125 L 87.992188 535.125 C 82.210938 531.914062 80.125 524.628906 83.339844 518.851562 C 86.550781 513.074219 93.835938 510.988281 99.621094 514.199219 L 315.171875 633.886719 C 320.953125 637.097656 323.035156 644.382812 319.824219 650.164062 C 317.636719 654.101562 313.554688 656.320312 309.347656 656.320312 Z M 309.347656 656.320312 " fill-opacity="1" fill-rule="nonzero"/><path fill="#5ad7ff" d="M 93.816406 536.632812 C 89.609375 536.632812 85.527344 534.410156 83.339844 530.476562 C 80.125 524.695312 82.210938 517.410156 87.992188 514.199219 L 303.539062 394.511719 C 309.324219 391.300781 316.613281 393.386719 319.824219 399.164062 C 323.035156 404.941406 320.953125 412.226562 315.171875 415.4375 L 99.621094 535.125 C 97.78125 536.148438 95.785156 536.632812 93.816406 536.632812 Z M 93.816406 536.632812 " fill-opacity="1" fill-rule="nonzero"/><path fill="#23aae6" d="M 309.367188 656.320312 C 305.300781 656.320312 301.332031 654.25 299.085938 650.507812 L 83.539062 291.445312 C 80.136719 285.777344 81.972656 278.425781 87.644531 275.023438 C 93.316406 271.621094 100.671875 273.460938 104.074219 279.128906 L 319.625 638.191406 C 323.027344 643.859375 321.1875 651.210938 315.515625 654.613281 C 313.589844 655.769531 311.464844 656.320312 309.367188 656.320312 Z M 309.367188 656.320312 " fill-opacity="1" fill-rule="nonzero"/><path fill="#23aae6" d="M 93.816406 297.257812 C 89.609375 297.257812 85.527344 295.035156 83.339844 291.101562 C 80.125 285.320312 82.210938 278.035156 87.992188 274.824219 L 303.539062 155.136719 C 309.324219 151.925781 316.613281 154.011719 319.824219 159.789062 C 323.035156 165.566406 320.953125 172.851562 315.171875 176.0625 L 99.621094 295.75 C 97.78125 296.773438 95.785156 297.257812 93.816406 297.257812 Z M 93.816406 297.257812 " fill-opacity="1" fill-rule="nonzero"/><path fill="#5ad7ff" d="M 309.347656 416.945312 C 307.378906 416.945312 305.382812 416.460938 303.539062 415.4375 L 87.992188 295.75 C 82.210938 292.539062 80.125 285.253906 83.339844 279.476562 C 86.550781 273.699219 93.835938 271.613281 99.621094 274.824219 L 315.171875 394.511719 C 320.953125 397.722656 323.035156 405.007812 319.824219 410.789062 C 317.636719 414.726562 313.554688 416.945312 309.347656 416.945312 Z M 309.347656 416.945312 " fill-opacity="1" fill-rule="nonzero"/><path fill="#d7e6f0" d="M 129.730469 524.664062 C 129.730469 525.839844 129.671875 527.011719 129.558594 528.183594 C 129.441406 529.351562 129.269531 530.515625 129.042969 531.667969 C 128.8125 532.820312 128.527344 533.960938 128.183594 535.085938 C 127.84375 536.210938 127.445312 537.316406 126.996094 538.402344 C 126.546875 539.488281 126.042969 540.550781 125.488281 541.589844 C 124.933594 542.625 124.332031 543.632812 123.675781 544.609375 C 123.023438 545.589844 122.324219 546.53125 121.578125 547.441406 C 120.832031 548.351562 120.042969 549.21875 119.210938 550.050781 C 118.378906 550.882812 117.507812 551.671875 116.597656 552.417969 C 115.6875 553.164062 114.742188 553.863281 113.765625 554.515625 C 112.785156 555.171875 111.777344 555.773438 110.742188 556.328125 C 109.703125 556.882812 108.640625 557.386719 107.554688 557.835938 C 106.46875 558.285156 105.359375 558.679688 104.234375 559.023438 C 103.109375 559.363281 101.96875 559.648438 100.816406 559.878906 C 99.660156 560.109375 98.5 560.28125 97.328125 560.394531 C 96.15625 560.511719 94.984375 560.570312 93.804688 560.570312 C 92.628906 560.570312 91.457031 560.511719 90.285156 560.394531 C 89.113281 560.28125 87.953125 560.109375 86.796875 559.878906 C 85.644531 559.648438 84.503906 559.363281 83.378906 559.023438 C 82.253906 558.679688 81.144531 558.285156 80.058594 557.835938 C 78.972656 557.386719 77.910156 556.882812 76.871094 556.328125 C 75.832031 555.773438 74.824219 555.171875 73.847656 554.515625 C 72.871094 553.863281 71.925781 553.164062 71.015625 552.417969 C 70.105469 551.671875 69.234375 550.882812 68.402344 550.050781 C 67.570312 549.21875 66.78125 548.351562 66.035156 547.441406 C 65.289062 546.53125 64.589844 545.589844 63.9375 544.609375 C 63.28125 543.632812 62.679688 542.625 62.125 541.589844 C 61.570312 540.550781 61.066406 539.488281 60.617188 538.402344 C 60.164062 537.316406 59.769531 536.210938 59.429688 535.085938 C 59.085938 533.960938 58.800781 532.820312 58.570312 531.667969 C 58.34375 530.515625 58.167969 529.351562 58.054688 528.183594 C 57.9375 527.011719 57.882812 525.839844 57.882812 524.664062 C 57.882812 523.488281 57.9375 522.3125 58.054688 521.144531 C 58.167969 519.972656 58.34375 518.8125 58.570312 517.65625 C 58.800781 516.503906 59.085938 515.363281 59.429688 514.238281 C 59.769531 513.113281 60.164062 512.007812 60.617188 510.921875 C 61.066406 509.835938 61.570312 508.773438 62.125 507.738281 C 62.679688 506.699219 63.28125 505.691406 63.9375 504.714844 C 64.589844 503.738281 65.289062 502.792969 66.035156 501.882812 C 66.78125 500.976562 67.570312 500.105469 68.402344 499.273438 C 69.234375 498.441406 70.105469 497.652344 71.015625 496.90625 C 71.925781 496.160156 72.871094 495.460938 73.847656 494.808594 C 74.824219 494.152344 75.832031 493.550781 76.871094 492.996094 C 77.910156 492.441406 78.972656 491.941406 80.058594 491.488281 C 81.144531 491.039062 82.253906 490.644531 83.378906 490.300781 C 84.503906 489.960938 85.644531 489.675781 86.796875 489.445312 C 87.953125 489.21875 89.113281 489.042969 90.285156 488.929688 C 91.457031 488.8125 92.628906 488.757812 93.804688 488.757812 C 94.984375 488.757812 96.15625 488.8125 97.328125 488.929688 C 98.5 489.042969 99.660156 489.21875 100.816406 489.445312 C 101.96875 489.675781 103.109375 489.960938 104.234375 490.300781 C 105.359375 490.644531 106.46875 491.039062 107.554688 491.488281 C 108.640625 491.941406 109.703125 492.441406 110.742188 492.996094 C 111.777344 493.550781 112.785156 494.152344 113.765625 494.808594 C 114.742188 495.460938 115.6875 496.160156 116.597656 496.90625 C 117.507812 497.652344 118.378906 498.441406 119.210938 499.273438 C 120.042969 500.105469 120.832031 500.976562 121.578125 501.882812 C 122.324219 502.792969 123.023438 503.738281 123.675781 504.714844 C 124.332031 505.691406 124.933594 506.699219 125.488281 507.738281 C 126.042969 508.773438 126.546875 509.835938 126.996094 510.921875 C 127.445312 512.007812 127.84375 513.113281 128.183594 514.238281 C 128.527344 515.363281 128.8125 516.503906 129.042969 517.65625 C 129.269531 518.8125 129.441406 519.972656 129.558594 521.144531 C 129.671875 522.3125 129.730469 523.488281 129.730469 524.664062 Z M 129.730469 524.664062 " fill-opacity="1" fill-rule="nonzero"/><g clip-path="url(#f22904425c)"><path fill="#23aae6" d="M 93.804688 572.539062 C 67.394531 572.539062 45.90625 551.0625 45.90625 524.664062 C 45.90625 498.265625 67.394531 476.789062 93.804688 476.789062 C 120.21875 476.789062 141.707031 498.265625 141.707031 524.664062 C 141.707031 551.0625 120.21875 572.539062 93.804688 572.539062 Z M 93.804688 500.726562 C 80.601562 500.726562 69.855469 511.460938 69.855469 524.664062 C 69.855469 537.863281 80.601562 548.601562 93.804688 548.601562 C 107.011719 548.601562 117.757812 537.863281 117.757812 524.664062 C 117.757812 511.460938 107.011719 500.726562 93.804688 500.726562 Z M 93.804688 500.726562 " fill-opacity="1" fill-rule="nonzero"/></g><g clip-path="url(#1d9fec0018)"><path fill="#5ad7ff" d="M 57.882812 536.632812 C 51.269531 536.632812 45.90625 531.273438 45.90625 524.664062 C 45.90625 498.265625 67.394531 476.789062 93.804688 476.789062 C 100.417969 476.789062 105.78125 482.148438 105.78125 488.757812 C 105.78125 495.367188 100.417969 500.726562 93.804688 500.726562 C 80.601562 500.726562 69.855469 511.460938 69.855469 524.664062 C 69.855469 531.273438 64.496094 536.632812 57.882812 536.632812 Z M 57.882812 536.632812 " fill-opacity="1" fill-rule="nonzero"/></g><path fill="#d7e6f0" d="M 129.730469 285.289062 C 129.730469 286.464844 129.671875 287.636719 129.558594 288.808594 C 129.441406 289.976562 129.269531 291.140625 129.042969 292.292969 C 128.8125 293.445312 128.527344 294.585938 128.183594 295.710938 C 127.84375 296.835938 127.445312 297.941406 126.996094 299.027344 C 126.546875 300.113281 126.042969 301.175781 125.488281 302.214844 C 124.933594 303.25 124.332031 304.257812 123.675781 305.234375 C 123.023438 306.214844 122.324219 307.15625 121.578125 308.066406 C 120.832031 308.976562 120.042969 309.84375 119.210938 310.675781 C 118.378906 311.507812 117.507812 312.296875 116.597656 313.042969 C 115.6875 313.789062 114.742188 314.488281 113.765625 315.140625 C 112.785156 315.796875 111.777344 316.398438 110.742188 316.953125 C 109.703125 317.507812 108.640625 318.011719 107.554688 318.460938 C 106.46875 318.910156 105.359375 319.304688 104.234375 319.648438 C 103.109375 319.988281 101.96875 320.273438 100.816406 320.503906 C 99.660156 320.734375 98.5 320.90625 97.328125 321.019531 C 96.15625 321.136719 94.984375 321.195312 93.804688 321.195312 C 92.628906 321.195312 91.457031 321.136719 90.285156 321.019531 C 89.113281 320.90625 87.953125 320.734375 86.796875 320.503906 C 85.644531 320.273438 84.503906 319.988281 83.378906 319.648438 C 82.253906 319.304688 81.144531 318.910156 80.058594 318.460938 C 78.972656 318.011719 77.910156 317.507812 76.871094 316.953125 C 75.832031 316.398438 74.824219 315.796875 73.847656 315.140625 C 72.871094 314.488281 71.925781 313.789062 71.015625 313.042969 C 70.105469 312.296875 69.234375 311.507812 68.402344 310.675781 C 67.570312 309.84375 66.78125 308.976562 66.035156 308.066406 C 65.289062 307.15625 64.589844 306.214844 63.9375 305.234375 C 63.28125 304.257812 62.679688 303.25 62.125 302.214844 C 61.570312 301.175781 61.066406 300.113281 60.617188 299.027344 C 60.164062 297.941406 59.769531 296.835938 59.429688 295.710938 C 59.085938 294.585938 58.800781 293.445312 58.570312 292.292969 C 58.34375 291.140625 58.167969 289.976562 58.054688 288.808594 C 57.9375 287.636719 57.882812 286.464844 57.882812 285.289062 C 57.882812 284.113281 57.9375 282.9375 58.054688 281.769531 C 58.167969 280.597656 58.34375 279.4375 58.570312 278.28125 C 58.800781 277.128906 59.085938 275.988281 59.429688 274.863281 C 59.769531 273.738281 60.164062 272.632812 60.617188 271.546875 C 61.066406 270.460938 61.570312 269.398438 62.125 268.363281 C 62.679688 267.324219 63.28125 266.316406 63.9375 265.339844 C 64.589844 264.363281 65.289062 263.417969 66.035156 262.507812 C 66.78125 261.601562 67.570312 260.730469 68.402344 259.898438 C 69.234375 259.066406 70.105469 258.277344 71.015625 257.53125 C 71.925781 256.785156 72.871094 256.085938 73.847656 255.433594 C 74.824219 254.777344 75.832031 254.175781 76.871094 253.621094 C 77.910156 253.066406 78.972656 252.566406 80.058594 252.113281 C 81.144531 251.664062 82.253906 251.269531 83.378906 250.925781 C 84.503906 250.585938 85.644531 250.300781 86.796875 250.070312 C 87.953125 249.84375 89.113281 249.667969 90.285156 249.554688 C 91.457031 249.4375 92.628906 249.382812 93.804688 249.382812 C 94.984375 249.382812 96.15625 249.4375 97.328125 249.554688 C 98.5 249.667969 99.660156 249.84375 100.816406 250.070312 C 101.96875 250.300781 103.109375 250.585938 104.234375 250.925781 C 105.359375 251.269531 106.46875 251.664062 107.554688 252.113281 C 108.640625 252.566406 109.703125 253.066406 110.742188 253.621094 C 111.777344 254.175781 112.785156 254.777344 113.765625 255.433594 C 114.742188 256.085938 115.6875 256.785156 116.597656 257.53125 C 117.507812 258.277344 118.378906 259.066406 119.210938 259.898438 C 120.042969 260.730469 120.832031 261.601562 121.578125 262.507812 C 122.324219 263.417969 123.023438 264.363281 123.675781 265.339844 C 124.332031 266.316406 124.933594 267.324219 125.488281 268.363281 C 126.042969 269.398438 126.546875 270.460938 126.996094 271.546875 C 127.445312 272.632812 127.84375 273.738281 128.183594 274.863281 C 128.527344 275.988281 128.8125 277.128906 129.042969 278.28125 C 129.269531 279.4375 129.441406 280.597656 129.558594 281.769531 C 129.671875 282.9375 129.730469 284.113281 129.730469 285.289062 Z M 129.730469 285.289062 " fill-opacity="1" fill-rule="nonzero"/><g clip-path="url(#326b435d15)"><path fill="#23aae6" d="M 93.804688 333.164062 C 67.394531 333.164062 45.90625 311.6875 45.90625 285.289062 C 45.90625 258.890625 67.394531 237.414062 93.804688 237.414062 C 120.21875 237.414062 141.707031 258.890625 141.707031 285.289062 C 141.707031 311.6875 120.21875 333.164062 93.804688 333.164062 Z M 93.804688 261.351562 C 80.601562 261.351562 69.855469 272.085938 69.855469 285.289062 C 69.855469 298.488281 80.601562 309.226562 93.804688 309.226562 C 107.011719 309.226562 117.757812 298.488281 117.757812 285.289062 C 117.757812 272.085938 107.011719 261.351562 93.804688 261.351562 Z M 93.804688 261.351562 " fill-opacity="1" fill-rule="nonzero"/></g><g clip-path="url(#c644b03492)"><path fill="#5ad7ff" d="M 57.882812 297.257812 C 51.269531 297.257812 45.90625 291.898438 45.90625 285.289062 C 45.90625 258.890625 67.394531 237.414062 93.804688 237.414062 C 100.417969 237.414062 105.78125 242.773438 105.78125 249.382812 C 105.78125 255.992188 100.417969 261.351562 93.804688 261.351562 C 80.601562 261.351562 69.855469 272.085938 69.855469 285.289062 C 69.855469 291.898438 64.496094 297.257812 57.882812 297.257812 Z M 57.882812 297.257812 " fill-opacity="1" fill-rule="nonzero"/></g><path fill="#23aae6" d="M 524.917969 536.632812 C 520.851562 536.632812 516.882812 534.5625 514.636719 530.820312 L 299.085938 171.757812 C 295.683594 166.089844 297.523438 158.738281 303.195312 155.335938 C 308.863281 151.933594 316.222656 153.773438 319.625 159.441406 L 535.175781 518.503906 C 538.578125 524.171875 536.738281 531.523438 531.066406 534.925781 C 529.140625 536.082031 527.015625 536.632812 524.917969 536.632812 Z M 524.917969 536.632812 " fill-opacity="1" fill-rule="nonzero"/><path fill="#23aae6" d="M 309.367188 656.320312 C 305.15625 656.320312 301.074219 654.097656 298.890625 650.164062 C 295.675781 644.382812 297.761719 637.097656 303.539062 633.886719 L 519.089844 514.199219 C 524.875 510.988281 532.164062 513.074219 535.375 518.851562 C 538.585938 524.628906 536.503906 531.914062 530.722656 535.125 L 315.171875 654.8125 C 313.332031 655.835938 311.335938 656.320312 309.367188 656.320312 Z M 309.367188 656.320312 " fill-opacity="1" fill-rule="nonzero"/><path fill="#5ad7ff" d="M 524.894531 536.632812 C 522.929688 536.632812 520.933594 536.148438 519.089844 535.125 L 303.542969 415.4375 C 297.761719 412.226562 295.675781 404.941406 298.890625 399.164062 C 302.097656 393.386719 309.390625 391.300781 315.171875 394.511719 L 530.722656 514.199219 C 536.503906 517.410156 538.585938 524.695312 535.375 530.476562 C 533.1875 534.414062 529.105469 536.632812 524.894531 536.632812 Z M 524.894531 536.632812 " fill-opacity="1" fill-rule="nonzero"/><path fill="#23aae6" d="M 309.34375 656.320312 C 307.246094 656.320312 305.125 655.769531 303.195312 654.613281 C 297.523438 651.210938 295.683594 643.859375 299.085938 638.191406 L 514.636719 279.128906 C 518.039062 273.460938 525.394531 271.625 531.066406 275.023438 C 536.738281 278.425781 538.578125 285.777344 535.175781 291.445312 L 319.625 650.507812 C 317.378906 654.25 313.414062 656.320312 309.34375 656.320312 Z M 309.34375 656.320312 " fill-opacity="1" fill-rule="nonzero"/><path fill="#23aae6" d="M 524.894531 297.257812 C 522.929688 297.257812 520.933594 296.773438 519.089844 295.75 L 303.542969 176.0625 C 297.761719 172.851562 295.675781 165.566406 298.890625 159.789062 C 302.097656 154.011719 309.390625 151.925781 315.171875 155.136719 L 530.722656 274.824219 C 536.503906 278.035156 538.585938 285.320312 535.375 291.101562 C 533.1875 295.039062 529.105469 297.257812 524.894531 297.257812 Z M 524.894531 297.257812 " fill-opacity="1" fill-rule="nonzero"/><path fill="#5ad7ff" d="M 309.367188 416.945312 C 305.15625 416.945312 301.074219 414.722656 298.890625 410.789062 C 295.675781 405.007812 297.761719 397.722656 303.539062 394.511719 L 519.089844 274.824219 C 524.875 271.613281 532.164062 273.699219 535.375 279.476562 C 538.585938 285.253906 536.503906 292.539062 530.722656 295.75 L 315.171875 415.4375 C 313.332031 416.460938 311.335938 416.945312 309.367188 416.945312 Z M 309.367188 416.945312 " fill-opacity="1" fill-rule="nonzero"/><path fill="#d7e6f0" d="M 560.832031 524.664062 C 560.832031 525.839844 560.773438 527.011719 560.660156 528.183594 C 560.542969 529.351562 560.371094 530.515625 560.140625 531.667969 C 559.910156 532.820312 559.625 533.960938 559.285156 535.085938 C 558.941406 536.210938 558.546875 537.316406 558.097656 538.402344 C 557.648438 539.488281 557.144531 540.550781 556.589844 541.589844 C 556.035156 542.625 555.429688 543.632812 554.777344 544.609375 C 554.125 545.589844 553.421875 546.53125 552.675781 547.441406 C 551.929688 548.351562 551.140625 549.21875 550.308594 550.050781 C 549.476562 550.882812 548.605469 551.671875 547.695312 552.417969 C 546.789062 553.164062 545.84375 553.863281 544.863281 554.515625 C 543.886719 555.171875 542.878906 555.773438 541.839844 556.328125 C 540.804688 556.882812 539.742188 557.386719 538.652344 557.835938 C 537.566406 558.285156 536.460938 558.679688 535.335938 559.023438 C 534.207031 559.363281 533.070312 559.648438 531.914062 559.878906 C 530.761719 560.109375 529.597656 560.28125 528.425781 560.394531 C 527.257812 560.511719 526.082031 560.570312 524.90625 560.570312 C 523.730469 560.570312 522.554688 560.511719 521.386719 560.394531 C 520.214844 560.28125 519.050781 560.109375 517.898438 559.878906 C 516.742188 559.648438 515.605469 559.363281 514.476562 559.023438 C 513.351562 558.679688 512.246094 558.285156 511.160156 557.835938 C 510.070312 557.386719 509.007812 556.882812 507.972656 556.328125 C 506.933594 555.773438 505.925781 555.171875 504.949219 554.515625 C 503.96875 553.863281 503.023438 553.164062 502.117188 552.417969 C 501.207031 551.671875 500.335938 550.882812 499.503906 550.050781 C 498.671875 549.21875 497.882812 548.351562 497.136719 547.441406 C 496.390625 546.53125 495.6875 545.589844 495.035156 544.609375 C 494.382812 543.632812 493.777344 542.625 493.222656 541.589844 C 492.667969 540.550781 492.167969 539.488281 491.714844 538.402344 C 491.265625 537.316406 490.871094 536.210938 490.527344 535.085938 C 490.1875 533.960938 489.902344 532.820312 489.671875 531.667969 C 489.441406 530.515625 489.269531 529.351562 489.15625 528.183594 C 489.039062 527.011719 488.980469 525.839844 488.980469 524.664062 C 488.980469 523.488281 489.039062 522.3125 489.15625 521.144531 C 489.269531 519.972656 489.441406 518.8125 489.671875 517.65625 C 489.902344 516.503906 490.1875 515.363281 490.527344 514.238281 C 490.871094 513.113281 491.265625 512.007812 491.714844 510.921875 C 492.167969 509.835938 492.667969 508.773438 493.222656 507.738281 C 493.777344 506.699219 494.382812 505.691406 495.035156 504.714844 C 495.6875 503.738281 496.390625 502.792969 497.136719 501.882812 C 497.882812 500.976562 498.671875 500.105469 499.503906 499.273438 C 500.335938 498.441406 501.207031 497.652344 502.117188 496.90625 C 503.023438 496.160156 503.96875 495.460938 504.949219 494.808594 C 505.925781 494.152344 506.933594 493.550781 507.972656 492.996094 C 509.007812 492.441406 510.070312 491.941406 511.160156 491.488281 C 512.246094 491.039062 513.351562 490.644531 514.476562 490.300781 C 515.605469 489.960938 516.742188 489.675781 517.898438 489.445312 C 519.050781 489.21875 520.214844 489.042969 521.386719 488.929688 C 522.554688 488.8125 523.730469 488.757812 524.90625 488.757812 C 526.082031 488.757812 527.257812 488.8125 528.425781 488.929688 C 529.597656 489.042969 530.761719 489.21875 531.914062 489.445312 C 533.070312 489.675781 534.207031 489.960938 535.335938 490.300781 C 536.460938 490.644531 537.566406 491.039062 538.652344 491.488281 C 539.742188 491.941406 540.804688 492.441406 541.839844 492.996094 C 542.878906 493.550781 543.886719 494.152344 544.863281 494.808594 C 545.84375 495.460938 546.789062 496.160156 547.695312 496.90625 C 548.605469 497.652344 549.476562 498.441406 550.308594 499.273438 C 551.140625 500.105469 551.929688 500.976562 552.675781 501.882812 C 553.421875 502.792969 554.125 503.738281 554.777344 504.714844 C 555.429688 505.691406 556.035156 506.699219 556.589844 507.738281 C 557.144531 508.773438 557.644531 509.835938 558.097656 510.921875 C 558.546875 512.007812 558.941406 513.113281 559.285156 514.238281 C 559.625 515.363281 559.910156 516.503906 560.140625 517.65625 C 560.371094 518.8125 560.542969 519.972656 560.660156 521.144531 C 560.773438 522.3125 560.832031 523.488281 560.832031 524.664062 Z M 560.832031 524.664062 " fill-opacity="1" fill-rule="nonzero"/><path fill="#f06423" d="M 524.90625 572.539062 C 498.492188 572.539062 477.007812 551.0625 477.007812 524.664062 C 477.007812 498.265625 498.492188 476.789062 524.90625 476.789062 C 551.320312 476.789062 572.804688 498.265625 572.804688 524.664062 C 572.804688 551.0625 551.320312 572.539062 524.90625 572.539062 Z M 524.90625 500.726562 C 511.699219 500.726562 500.957031 511.460938 500.957031 524.664062 C 500.957031 537.863281 511.699219 548.601562 524.90625 548.601562 C 538.113281 548.601562 548.855469 537.863281 548.855469 524.664062 C 548.855469 511.460938 538.113281 500.726562 524.90625 500.726562 Z M 524.90625 500.726562 " fill-opacity="1" fill-rule="nonzero"/><path fill="#faa019" d="M 488.980469 536.632812 C 482.367188 536.632812 477.007812 531.273438 477.007812 524.664062 C 477.007812 498.265625 498.492188 476.789062 524.90625 476.789062 C 531.519531 476.789062 536.882812 482.148438 536.882812 488.757812 C 536.882812 495.367188 531.519531 500.726562 524.90625 500.726562 C 511.699219 500.726562 500.957031 511.460938 500.957031 524.664062 C 500.957031 531.273438 495.59375 536.632812 488.980469 536.632812 Z M 488.980469 536.632812 " fill-opacity="1" fill-rule="nonzero"/><path fill="#d7e6f0" d="M 560.832031 285.289062 C 560.832031 286.464844 560.773438 287.636719 560.660156 288.808594 C 560.542969 289.976562 560.371094 291.140625 560.140625 292.292969 C 559.910156 293.445312 559.625 294.585938 559.285156 295.710938 C 558.941406 296.835938 558.546875 297.941406 558.097656 299.027344 C 557.648438 300.113281 557.144531 301.175781 556.589844 302.214844 C 556.035156 303.25 555.429688 304.257812 554.777344 305.234375 C 554.125 306.214844 553.421875 307.15625 552.675781 308.066406 C 551.929688 308.976562 551.140625 309.84375 550.308594 310.675781 C 549.476562 311.507812 548.605469 312.296875 547.695312 313.042969 C 546.789062 313.789062 545.84375 314.488281 544.863281 315.140625 C 543.886719 315.796875 542.878906 316.398438 541.839844 316.953125 C 540.804688 317.507812 539.742188 318.011719 538.652344 318.460938 C 537.566406 318.910156 536.460938 319.304688 535.335938 319.648438 C 534.207031 319.988281 533.070312 320.273438 531.914062 320.503906 C 530.761719 320.734375 529.597656 320.90625 528.425781 321.019531 C 527.257812 321.136719 526.082031 321.195312 524.90625 321.195312 C 523.730469 321.195312 522.554688 321.136719 521.386719 321.019531 C 520.214844 320.90625 519.050781 320.734375 517.898438 320.503906 C 516.742188 320.273438 515.605469 319.988281 514.476562 319.648438 C 513.351562 319.304688 512.246094 318.910156 511.160156 318.460938 C 510.070312 318.011719 509.007812 317.507812 507.972656 316.953125 C 506.933594 316.398438 505.925781 315.796875 504.949219 315.140625 C 503.96875 314.488281 503.023438 313.789062 502.117188 313.042969 C 501.207031 312.296875 500.335938 311.507812 499.503906 310.675781 C 498.671875 309.84375 497.882812 308.976562 497.136719 308.066406 C 496.390625 307.15625 495.6875 306.214844 495.035156 305.234375 C 494.382812 304.257812 493.777344 303.25 493.222656 302.214844 C 492.667969 301.175781 492.167969 300.113281 491.714844 299.027344 C 491.265625 297.941406 490.871094 296.835938 490.527344 295.710938 C 490.1875 294.585938 489.902344 293.445312 489.671875 292.292969 C 489.441406 291.140625 489.269531 289.976562 489.15625 288.808594 C 489.039062 287.636719 488.980469 286.464844 488.980469 285.289062 C 488.980469 284.113281 489.039062 282.9375 489.15625 281.769531 C 489.269531 280.597656 489.441406 279.4375 489.671875 278.28125 C 489.902344 277.128906 490.1875 275.988281 490.527344 274.863281 C 490.871094 273.738281 491.265625 272.632812 491.714844 271.546875 C 492.167969 270.460938 492.667969 269.398438 493.222656 268.363281 C 493.777344 267.324219 494.382812 266.316406 495.035156 265.339844 C 495.6875 264.363281 496.390625 263.417969 497.136719 262.507812 C 497.882812 261.601562 498.671875 260.730469 499.503906 259.898438 C 500.335938 259.066406 501.207031 258.277344 502.117188 257.53125 C 503.023438 256.785156 503.96875 256.085938 504.949219 255.433594 C 505.925781 254.777344 506.933594 254.175781 507.972656 253.621094 C 509.007812 253.066406 510.070312 252.566406 511.160156 252.113281 C 512.246094 251.664062 513.351562 251.269531 514.476562 250.925781 C 515.605469 250.585938 516.742188 250.300781 517.898438 250.070312 C 519.050781 249.84375 520.214844 249.667969 521.386719 249.554688 C 522.554688 249.4375 523.730469 249.382812 524.90625 249.382812 C 526.082031 249.382812 527.257812 249.4375 528.425781 249.554688 C 529.597656 249.667969 530.761719 249.84375 531.914062 250.070312 C 533.070312 250.300781 534.207031 250.585938 535.335938 250.925781 C 536.460938 251.269531 537.566406 251.664062 538.652344 252.113281 C 539.742188 252.566406 540.804688 253.066406 541.839844 253.621094 C 542.878906 254.175781 543.886719 254.777344 544.863281 255.433594 C 545.84375 256.085938 546.789062 256.785156 547.695312 257.53125 C 548.605469 258.277344 549.476562 259.066406 550.308594 259.898438 C 551.140625 260.730469 551.929688 261.601562 552.675781 262.507812 C 553.421875 263.417969 554.125 264.363281 554.777344 265.339844 C 555.429688 266.316406 556.035156 267.324219 556.589844 268.363281 C 557.144531 269.398438 557.644531 270.460938 558.097656 271.546875 C 558.546875 272.632812 558.941406 273.738281 559.285156 274.863281 C 559.625 275.988281 559.910156 277.128906 560.140625 278.28125 C 560.371094 279.4375 560.542969 280.597656 560.660156 281.769531 C 560.773438 282.9375 560.832031 284.113281 560.832031 285.289062 Z M 560.832031 285.289062 " fill-opacity="1" fill-rule="nonzero"/><path fill="#f06423" d="M 524.90625 333.164062 C 498.492188 333.164062 477.007812 311.6875 477.007812 285.289062 C 477.007812 258.890625 498.492188 237.414062 524.90625 237.414062 C 551.320312 237.414062 572.804688 258.890625 572.804688 285.289062 C 572.804688 311.6875 551.320312 333.164062 524.90625 333.164062 Z M 524.90625 261.351562 C 511.699219 261.351562 500.957031 272.085938 500.957031 285.289062 C 500.957031 298.488281 511.699219 309.226562 524.90625 309.226562 C 538.113281 309.226562 548.855469 298.488281 548.855469 285.289062 C 548.855469 272.085938 538.113281 261.351562 524.90625 261.351562 Z M 524.90625 261.351562 " fill-opacity="1" fill-rule="nonzero"/><path fill="#faa019" d="M 488.980469 297.257812 C 482.367188 297.257812 477.007812 291.898438 477.007812 285.289062 C 477.007812 258.890625 498.492188 237.414062 524.90625 237.414062 C 531.519531 237.414062 536.882812 242.773438 536.882812 249.382812 C 536.882812 255.992188 531.519531 261.351562 524.90625 261.351562 C 511.699219 261.351562 500.957031 272.085938 500.957031 285.289062 C 500.957031 291.898438 495.59375 297.257812 488.980469 297.257812 Z M 488.980469 297.257812 " fill-opacity="1" fill-rule="nonzero"/><path fill="#555a6e" d="M 345.28125 404.976562 C 345.28125 406.152344 345.222656 407.324219 345.109375 408.496094 C 344.992188 409.664062 344.820312 410.828125 344.589844 411.980469 C 344.363281 413.132812 344.074219 414.273438 343.734375 415.398438 C 343.394531 416.523438 342.996094 417.628906 342.546875 418.714844 C 342.097656 419.800781 341.59375 420.863281 341.039062 421.902344 C 340.484375 422.9375 339.878906 423.945312 339.226562 424.921875 C 338.574219 425.902344 337.875 426.84375 337.125 427.753906 C 336.378906 428.664062 335.589844 429.53125 334.757812 430.363281 C 333.925781 431.195312 333.054688 431.984375 332.148438 432.730469 C 331.238281 433.476562 330.292969 434.175781 329.316406 434.828125 C 328.335938 435.484375 327.328125 436.085938 326.292969 436.640625 C 325.253906 437.195312 324.191406 437.699219 323.105469 438.148438 C 322.015625 438.597656 320.910156 438.992188 319.785156 439.335938 C 318.660156 439.675781 317.519531 439.960938 316.363281 440.191406 C 315.210938 440.421875 314.046875 440.59375 312.878906 440.707031 C 311.707031 440.824219 310.53125 440.882812 309.355469 440.882812 C 308.179688 440.882812 307.007812 440.824219 305.835938 440.707031 C 304.664062 440.59375 303.5 440.421875 302.347656 440.191406 C 301.195312 439.960938 300.054688 439.675781 298.929688 439.335938 C 297.800781 438.992188 296.695312 438.597656 295.609375 438.148438 C 294.519531 437.699219 293.460938 437.195312 292.421875 436.640625 C 291.382812 436.085938 290.375 435.484375 289.398438 434.828125 C 288.417969 434.175781 287.476562 433.476562 286.566406 432.730469 C 285.65625 431.984375 284.785156 431.195312 283.953125 430.363281 C 283.121094 429.53125 282.332031 428.664062 281.585938 427.753906 C 280.839844 426.84375 280.140625 425.902344 279.484375 424.921875 C 278.832031 423.945312 278.226562 422.9375 277.671875 421.902344 C 277.117188 420.863281 276.617188 419.800781 276.164062 418.714844 C 275.714844 417.628906 275.320312 416.523438 274.976562 415.398438 C 274.636719 414.273438 274.351562 413.132812 274.121094 411.980469 C 273.890625 410.828125 273.71875 409.664062 273.605469 408.496094 C 273.488281 407.324219 273.429688 406.152344 273.429688 404.976562 C 273.429688 403.800781 273.488281 402.625 273.605469 401.457031 C 273.71875 400.285156 273.890625 399.125 274.121094 397.96875 C 274.351562 396.816406 274.636719 395.675781 274.976562 394.550781 C 275.320312 393.425781 275.714844 392.320312 276.164062 391.234375 C 276.617188 390.148438 277.117188 389.085938 277.671875 388.050781 C 278.226562 387.011719 278.832031 386.003906 279.484375 385.027344 C 280.140625 384.046875 280.839844 383.105469 281.585938 382.195312 C 282.332031 381.289062 283.121094 380.417969 283.953125 379.585938 C 284.785156 378.753906 285.65625 377.964844 286.566406 377.21875 C 287.476562 376.472656 288.417969 375.773438 289.398438 375.121094 C 290.375 374.464844 291.382812 373.863281 292.421875 373.308594 C 293.460938 372.753906 294.519531 372.253906 295.609375 371.800781 C 296.695312 371.351562 297.800781 370.957031 298.929688 370.613281 C 300.054688 370.273438 301.195312 369.988281 302.347656 369.757812 C 303.5 369.53125 304.664062 369.355469 305.835938 369.242188 C 307.007812 369.125 308.179688 369.070312 309.355469 369.070312 C 310.53125 369.070312 311.707031 369.125 312.878906 369.242188 C 314.046875 369.355469 315.210938 369.53125 316.363281 369.757812 C 317.519531 369.988281 318.660156 370.273438 319.785156 370.613281 C 320.910156 370.957031 322.015625 371.351562 323.105469 371.800781 C 324.191406 372.253906 325.253906 372.753906 326.292969 373.308594 C 327.328125 373.863281 328.335938 374.464844 329.316406 375.121094 C 330.292969 375.773438 331.238281 376.472656 332.148438 377.21875 C 333.054688 377.964844 333.925781 378.753906 334.757812 379.585938 C 335.589844 380.417969 336.378906 381.289062 337.125 382.195312 C 337.875 383.105469 338.574219 384.046875 339.226562 385.027344 C 339.878906 386.003906 340.484375 387.011719 341.039062 388.050781 C 341.59375 389.085938 342.097656 390.148438 342.546875 391.234375 C 342.996094 392.320312 343.394531 393.425781 343.734375 394.550781 C 344.074219 395.675781 344.363281 396.816406 344.589844 397.96875 C 344.820312 399.125 344.992188 400.285156 345.109375 401.457031 C 345.222656 402.625 345.28125 403.800781 345.28125 404.976562 Z M 345.28125 404.976562 " fill-opacity="1" fill-rule="nonzero"/><path fill="#f06423" d="M 309.355469 452.851562 C 282.945312 452.851562 261.457031 431.375 261.457031 404.976562 C 261.457031 378.578125 282.945312 357.101562 309.355469 357.101562 C 335.769531 357.101562 357.257812 378.578125 357.257812 404.976562 C 357.257812 431.375 335.769531 452.851562 309.355469 452.851562 Z M 309.355469 381.039062 C 296.152344 381.039062 285.40625 391.773438 285.40625 404.976562 C 285.40625 418.175781 296.152344 428.914062 309.355469 428.914062 C 322.5625 428.914062 333.304688 418.175781 333.304688 404.976562 C 333.304688 391.773438 322.5625 381.039062 309.355469 381.039062 Z M 309.355469 381.039062 " fill-opacity="1" fill-rule="nonzero"/><path fill="#faa019" d="M 273.429688 416.945312 C 266.816406 416.945312 261.457031 411.585938 261.457031 404.976562 C 261.457031 378.578125 282.945312 357.101562 309.355469 357.101562 C 315.96875 357.101562 321.332031 362.460938 321.332031 369.070312 C 321.332031 375.679688 315.96875 381.039062 309.355469 381.039062 C 296.152344 381.039062 285.40625 391.773438 285.40625 404.976562 C 285.40625 411.585938 280.042969 416.945312 273.429688 416.945312 Z M 273.429688 416.945312 " fill-opacity="1" fill-rule="nonzero"/><path fill="#555a6e" d="M 752.429688 404.976562 C 752.429688 406.933594 752.335938 408.890625 752.144531 410.839844 C 751.949219 412.792969 751.664062 414.726562 751.28125 416.648438 C 750.898438 418.574219 750.421875 420.472656 749.851562 422.347656 C 749.285156 424.222656 748.625 426.066406 747.875 427.875 C 747.125 429.6875 746.285156 431.457031 745.363281 433.183594 C 744.4375 434.914062 743.429688 436.59375 742.339844 438.222656 C 741.25 439.851562 740.085938 441.425781 738.839844 442.941406 C 737.597656 444.453125 736.28125 445.90625 734.894531 447.289062 C 733.507812 448.675781 732.054688 449.992188 730.539062 451.234375 C 729.023438 452.476562 727.453125 453.644531 725.820312 454.734375 C 724.191406 455.820312 722.511719 456.828125 720.78125 457.753906 C 719.050781 458.675781 717.28125 459.511719 715.46875 460.261719 C 713.65625 461.011719 711.8125 461.671875 709.9375 462.242188 C 708.0625 462.8125 706.160156 463.285156 704.238281 463.667969 C 702.3125 464.050781 700.375 464.339844 698.425781 464.53125 C 696.472656 464.722656 694.515625 464.820312 692.554688 464.820312 C 690.59375 464.820312 688.640625 464.722656 686.6875 464.53125 C 684.734375 464.339844 682.796875 464.050781 680.875 463.667969 C 678.953125 463.285156 677.050781 462.8125 675.175781 462.242188 C 673.300781 461.671875 671.453125 461.011719 669.644531 460.261719 C 667.832031 459.511719 666.0625 458.675781 664.332031 457.753906 C 662.601562 456.828125 660.921875 455.820312 659.292969 454.734375 C 657.660156 453.644531 656.085938 452.476562 654.570312 451.234375 C 653.054688 449.992188 651.605469 448.675781 650.21875 447.289062 C 648.832031 445.90625 647.515625 444.453125 646.273438 442.941406 C 645.027344 441.425781 643.863281 439.851562 642.773438 438.222656 C 641.683594 436.59375 640.675781 434.914062 639.75 433.183594 C 638.828125 431.457031 637.988281 429.6875 637.238281 427.875 C 636.488281 426.066406 635.828125 424.222656 635.257812 422.347656 C 634.691406 420.472656 634.214844 418.574219 633.832031 416.648438 C 633.449219 414.726562 633.160156 412.792969 632.96875 410.839844 C 632.777344 408.890625 632.679688 406.933594 632.679688 404.976562 C 632.679688 403.015625 632.777344 401.058594 632.96875 399.109375 C 633.160156 397.160156 633.449219 395.222656 633.832031 393.300781 C 634.214844 391.378906 634.691406 389.480469 635.257812 387.601562 C 635.828125 385.726562 636.488281 383.882812 637.238281 382.074219 C 637.988281 380.261719 638.828125 378.492188 639.75 376.765625 C 640.675781 375.035156 641.683594 373.355469 642.773438 371.726562 C 643.863281 370.097656 645.027344 368.527344 646.273438 367.011719 C 647.515625 365.496094 648.832031 364.046875 650.21875 362.660156 C 651.605469 361.273438 653.054688 359.957031 654.570312 358.714844 C 656.085938 357.472656 657.660156 356.304688 659.292969 355.214844 C 660.921875 354.128906 662.601562 353.121094 664.332031 352.199219 C 666.0625 351.273438 667.832031 350.4375 669.644531 349.6875 C 671.453125 348.9375 673.300781 348.277344 675.175781 347.707031 C 677.050781 347.140625 678.953125 346.664062 680.875 346.28125 C 682.796875 345.898438 684.734375 345.613281 686.6875 345.417969 C 688.640625 345.226562 690.59375 345.132812 692.554688 345.132812 C 694.515625 345.132812 696.472656 345.226562 698.425781 345.417969 C 700.375 345.613281 702.3125 345.898438 704.238281 346.28125 C 706.160156 346.664062 708.058594 347.140625 709.9375 347.707031 C 711.8125 348.277344 713.65625 348.9375 715.46875 349.6875 C 717.28125 350.4375 719.050781 351.273438 720.78125 352.199219 C 722.511719 353.121094 724.191406 354.128906 725.820312 355.214844 C 727.453125 356.304688 729.023438 357.472656 730.539062 358.714844 C 732.054688 359.957031 733.507812 361.273438 734.894531 362.660156 C 736.28125 364.046875 737.597656 365.496094 738.839844 367.011719 C 740.085938 368.527344 741.25 370.097656 742.339844 371.726562 C 743.429688 373.355469 744.4375 375.035156 745.363281 376.765625 C 746.285156 378.492188 747.125 380.261719 747.875 382.074219 C 748.625 383.882812 749.285156 385.726562 749.851562 387.601562 C 750.421875 389.480469 750.898438 391.378906 751.28125 393.300781 C 751.664062 395.222656 751.949219 397.160156 752.144531 399.109375 C 752.335938 401.058594 752.429688 403.015625 752.429688 404.976562 Z M 752.429688 404.976562 " fill-opacity="1" fill-rule="nonzero"/><g clip-path="url(#df684a1a31)"><path fill="#23aae6" d="M 692.554688 476.789062 C 652.9375 476.789062 620.707031 444.570312 620.707031 404.976562 C 620.707031 365.378906 652.9375 333.164062 692.554688 333.164062 C 732.175781 333.164062 764.40625 365.378906 764.40625 404.976562 C 764.40625 444.570312 732.175781 476.789062 692.554688 476.789062 Z M 692.554688 357.101562 C 666.144531 357.101562 644.65625 378.578125 644.65625 404.976562 C 644.65625 431.375 666.144531 452.851562 692.554688 452.851562 C 718.96875 452.851562 740.457031 431.375 740.457031 404.976562 C 740.457031 378.578125 718.96875 357.101562 692.554688 357.101562 Z M 692.554688 357.101562 " fill-opacity="1" fill-rule="nonzero"/></g><path fill="#5ad7ff" d="M 632.679688 416.945312 C 626.066406 416.945312 620.707031 411.585938 620.707031 404.976562 C 620.707031 365.378906 652.9375 333.164062 692.554688 333.164062 C 699.167969 333.164062 704.53125 338.523438 704.53125 345.132812 C 704.53125 351.742188 699.167969 357.101562 692.554688 357.101562 C 666.144531 357.101562 644.65625 378.578125 644.65625 404.976562 C 644.65625 411.585938 639.292969 416.945312 632.679688 416.945312 Z M 632.679688 416.945312 " fill-opacity="1" fill-rule="nonzero"/><path fill="#555a6e" d="M 345.28125 165.601562 C 345.28125 166.777344 345.222656 167.949219 345.109375 169.121094 C 344.992188 170.289062 344.820312 171.453125 344.589844 172.605469 C 344.363281 173.757812 344.074219 174.898438 343.734375 176.023438 C 343.394531 177.148438 342.996094 178.253906 342.546875 179.339844 C 342.097656 180.425781 341.59375 181.488281 341.039062 182.527344 C 340.484375 183.5625 339.878906 184.570312 339.226562 185.546875 C 338.574219 186.527344 337.875 187.46875 337.125 188.378906 C 336.378906 189.289062 335.589844 190.15625 334.757812 190.988281 C 333.925781 191.820312 333.054688 192.609375 332.148438 193.355469 C 331.238281 194.101562 330.292969 194.800781 329.316406 195.453125 C 328.335938 196.109375 327.328125 196.710938 326.292969 197.265625 C 325.253906 197.820312 324.191406 198.324219 323.105469 198.773438 C 322.015625 199.222656 320.910156 199.617188 319.785156 199.960938 C 318.660156 200.300781 317.519531 200.585938 316.363281 200.816406 C 315.210938 201.046875 314.046875 201.21875 312.878906 201.332031 C 311.707031 201.449219 310.53125 201.507812 309.355469 201.507812 C 308.179688 201.507812 307.007812 201.449219 305.835938 201.332031 C 304.664062 201.21875 303.5 201.046875 302.347656 200.816406 C 301.195312 200.585938 300.054688 200.300781 298.929688 199.960938 C 297.800781 199.617188 296.695312 199.222656 295.609375 198.773438 C 294.519531 198.324219 293.460938 197.820312 292.421875 197.265625 C 291.382812 196.710938 290.375 196.109375 289.398438 195.453125 C 288.417969 194.800781 287.476562 194.101562 286.566406 193.355469 C 285.65625 192.609375 284.785156 191.820312 283.953125 190.988281 C 283.121094 190.15625 282.332031 189.289062 281.585938 188.378906 C 280.839844 187.46875 280.140625 186.527344 279.484375 185.546875 C 278.832031 184.570312 278.226562 183.5625 277.671875 182.527344 C 277.117188 181.488281 276.617188 180.425781 276.164062 179.339844 C 275.714844 178.253906 275.320312 177.148438 274.976562 176.023438 C 274.636719 174.898438 274.351562 173.757812 274.121094 172.605469 C 273.890625 171.453125 273.71875 170.289062 273.605469 169.121094 C 273.488281 167.949219 273.429688 166.777344 273.429688 165.601562 C 273.429688 164.425781 273.488281 163.25 273.605469 162.082031 C 273.71875 160.910156 273.890625 159.75 274.121094 158.59375 C 274.351562 157.441406 274.636719 156.300781 274.976562 155.175781 C 275.320312 154.050781 275.714844 152.945312 276.164062 151.859375 C 276.617188 150.773438 277.117188 149.710938 277.671875 148.675781 C 278.226562 147.636719 278.832031 146.628906 279.484375 145.652344 C 280.140625 144.675781 280.839844 143.730469 281.585938 142.820312 C 282.332031 141.914062 283.121094 141.042969 283.953125 140.210938 C 284.785156 139.378906 285.65625 138.589844 286.566406 137.84375 C 287.476562 137.097656 288.417969 136.398438 289.398438 135.746094 C 290.375 135.09375 291.382812 134.488281 292.421875 133.933594 C 293.460938 133.378906 294.519531 132.878906 295.609375 132.425781 C 296.695312 131.976562 297.800781 131.582031 298.929688 131.238281 C 300.054688 130.898438 301.195312 130.613281 302.347656 130.382812 C 303.5 130.15625 304.664062 129.980469 305.835938 129.867188 C 307.007812 129.75 308.179688 129.695312 309.355469 129.695312 C 310.53125 129.695312 311.707031 129.75 312.878906 129.867188 C 314.046875 129.980469 315.210938 130.15625 316.363281 130.382812 C 317.519531 130.613281 318.660156 130.898438 319.785156 131.238281 C 320.910156 131.582031 322.015625 131.976562 323.105469 132.425781 C 324.191406 132.878906 325.253906 133.378906 326.292969 133.933594 C 327.328125 134.488281 328.335938 135.09375 329.316406 135.746094 C 330.292969 136.398438 331.238281 137.097656 332.148438 137.84375 C 333.054688 138.589844 333.925781 139.378906 334.757812 140.210938 C 335.589844 141.042969 336.378906 141.914062 337.125 142.820312 C 337.875 143.730469 338.574219 144.675781 339.226562 145.652344 C 339.878906 146.628906 340.484375 147.636719 341.039062 148.675781 C 341.59375 149.710938 342.097656 150.773438 342.546875 151.859375 C 342.996094 152.945312 343.394531 154.050781 343.734375 155.175781 C 344.074219 156.300781 344.363281 157.441406 344.589844 158.59375 C 344.820312 159.75 344.992188 160.910156 345.109375 162.082031 C 345.222656 163.25 345.28125 164.425781 345.28125 165.601562 Z M 345.28125 165.601562 " fill-opacity="1" fill-rule="nonzero"/><g clip-path="url(#3450d3ad60)"><path fill="#f06423" d="M 309.355469 213.476562 C 282.945312 213.476562 261.457031 192 261.457031 165.601562 C 261.457031 139.203125 282.945312 117.726562 309.355469 117.726562 C 335.769531 117.726562 357.257812 139.203125 357.257812 165.601562 C 357.257812 192 335.769531 213.476562 309.355469 213.476562 Z M 309.355469 141.664062 C 296.152344 141.664062 285.40625 152.398438 285.40625 165.601562 C 285.40625 178.800781 296.152344 189.539062 309.355469 189.539062 C 322.5625 189.539062 333.304688 178.800781 333.304688 165.601562 C 333.304688 152.398438 322.5625 141.664062 309.355469 141.664062 Z M 309.355469 141.664062 " fill-opacity="1" fill-rule="nonzero"/></g><g clip-path="url(#d58076c073)"><path fill="#faa019" d="M 273.429688 177.570312 C 266.816406 177.570312 261.457031 172.210938 261.457031 165.601562 C 261.457031 139.203125 282.945312 117.726562 309.355469 117.726562 C 315.96875 117.726562 321.332031 123.085938 321.332031 129.695312 C 321.332031 136.304688 315.96875 141.664062 309.355469 141.664062 C 296.152344 141.664062 285.40625 152.398438 285.40625 165.601562 C 285.40625 172.210938 280.042969 177.570312 273.429688 177.570312 Z M 273.429688 177.570312 " fill-opacity="1" fill-rule="nonzero"/></g><path fill="#555a6e" d="M 345.28125 644.351562 C 345.28125 645.527344 345.222656 646.699219 345.109375 647.871094 C 344.992188 649.039062 344.820312 650.203125 344.589844 651.355469 C 344.363281 652.507812 344.074219 653.648438 343.734375 654.773438 C 343.394531 655.898438 342.996094 657.003906 342.546875 658.089844 C 342.097656 659.175781 341.59375 660.238281 341.039062 661.277344 C 340.484375 662.3125 339.878906 663.320312 339.226562 664.296875 C 338.574219 665.277344 337.875 666.21875 337.125 667.128906 C 336.378906 668.039062 335.589844 668.90625 334.757812 669.738281 C 333.925781 670.570312 333.054688 671.359375 332.148438 672.105469 C 331.238281 672.851562 330.292969 673.550781 329.316406 674.203125 C 328.335938 674.859375 327.328125 675.460938 326.292969 676.015625 C 325.253906 676.570312 324.191406 677.074219 323.105469 677.523438 C 322.015625 677.972656 320.910156 678.367188 319.785156 678.710938 C 318.660156 679.050781 317.519531 679.335938 316.363281 679.566406 C 315.210938 679.796875 314.046875 679.96875 312.878906 680.082031 C 311.707031 680.199219 310.53125 680.257812 309.355469 680.257812 C 308.179688 680.257812 307.007812 680.199219 305.835938 680.082031 C 304.664062 679.96875 303.5 679.796875 302.347656 679.566406 C 301.195312 679.335938 300.054688 679.050781 298.929688 678.710938 C 297.800781 678.367188 296.695312 677.972656 295.609375 677.523438 C 294.519531 677.074219 293.460938 676.570312 292.421875 676.015625 C 291.382812 675.460938 290.375 674.859375 289.398438 674.203125 C 288.417969 673.550781 287.476562 672.851562 286.566406 672.105469 C 285.65625 671.359375 284.785156 670.570312 283.953125 669.738281 C 283.121094 668.90625 282.332031 668.039062 281.585938 667.128906 C 280.839844 666.21875 280.140625 665.277344 279.484375 664.296875 C 278.832031 663.320312 278.226562 662.3125 277.671875 661.277344 C 277.117188 660.238281 276.617188 659.175781 276.164062 658.089844 C 275.714844 657.003906 275.320312 655.898438 274.976562 654.773438 C 274.636719 653.648438 274.351562 652.507812 274.121094 651.355469 C 273.890625 650.203125 273.71875 649.039062 273.605469 647.871094 C 273.488281 646.699219 273.429688 645.527344 273.429688 644.351562 C 273.429688 643.175781 273.488281 642 273.605469 640.832031 C 273.71875 639.660156 273.890625 638.5 274.121094 637.34375 C 274.351562 636.191406 274.636719 635.050781 274.976562 633.925781 C 275.320312 632.800781 275.714844 631.695312 276.164062 630.609375 C 276.617188 629.523438 277.117188 628.460938 277.671875 627.425781 C 278.226562 626.386719 278.832031 625.378906 279.484375 624.402344 C 280.140625 623.421875 280.839844 622.480469 281.585938 621.570312 C 282.332031 620.664062 283.121094 619.792969 283.953125 618.960938 C 284.785156 618.128906 285.65625 617.339844 286.566406 616.59375 C 287.476562 615.847656 288.417969 615.148438 289.398438 614.496094 C 290.375 613.839844 291.382812 613.238281 292.421875 612.683594 C 293.460938 612.128906 294.519531 611.628906 295.609375 611.175781 C 296.695312 610.726562 297.800781 610.332031 298.929688 609.988281 C 300.054688 609.648438 301.195312 609.363281 302.347656 609.132812 C 303.5 608.90625 304.664062 608.730469 305.835938 608.617188 C 307.007812 608.5 308.179688 608.445312 309.355469 608.445312 C 310.53125 608.445312 311.707031 608.5 312.878906 608.617188 C 314.046875 608.730469 315.210938 608.902344 316.363281 609.132812 C 317.519531 609.363281 318.660156 609.648438 319.785156 609.988281 C 320.910156 610.332031 322.015625 610.726562 323.105469 611.175781 C 324.191406 611.628906 325.253906 612.128906 326.292969 612.683594 C 327.328125 613.238281 328.335938 613.839844 329.316406 614.496094 C 330.292969 615.148438 331.238281 615.847656 332.148438 616.59375 C 333.054688 617.339844 333.925781 618.128906 334.757812 618.960938 C 335.589844 619.792969 336.378906 620.664062 337.125 621.570312 C 337.875 622.480469 338.574219 623.421875 339.226562 624.402344 C 339.878906 625.378906 340.484375 626.386719 341.039062 627.425781 C 341.59375 628.460938 342.097656 629.523438 342.546875 630.609375 C 342.996094 631.695312 343.394531 632.800781 343.734375 633.925781 C 344.074219 635.050781 344.363281 636.191406 344.589844 637.34375 C 344.820312 638.5 344.992188 639.660156 345.109375 640.832031 C 345.222656 642 345.28125 643.175781 345.28125 644.351562 Z M 345.28125 644.351562 " fill-opacity="1" fill-rule="nonzero"/><g clip-path="url(#10c1b6637d)"><path fill="#f06423" d="M 309.355469 692.226562 C 282.945312 692.226562 261.457031 670.75 261.457031 644.351562 C 261.457031 617.953125 282.945312 596.476562 309.355469 596.476562 C 335.769531 596.476562 357.257812 617.953125 357.257812 644.351562 C 357.257812 670.75 335.769531 692.226562 309.355469 692.226562 Z M 309.355469 620.414062 C 296.152344 620.414062 285.40625 631.148438 285.40625 644.351562 C 285.40625 657.550781 296.152344 668.289062 309.355469 668.289062 C 322.5625 668.289062 333.304688 657.550781 333.304688 644.351562 C 333.304688 631.148438 322.5625 620.414062 309.355469 620.414062 Z M 309.355469 620.414062 " fill-opacity="1" fill-rule="nonzero"/></g><path fill="#faa019" d="M 273.429688 656.320312 C 266.816406 656.320312 261.457031 650.960938 261.457031 644.351562 C 261.457031 617.953125 282.945312 596.476562 309.355469 596.476562 C 315.96875 596.476562 321.332031 601.835938 321.332031 608.445312 C 321.332031 615.054688 315.96875 620.414062 309.355469 620.414062 C 296.152344 620.414062 285.40625 631.148438 285.40625 644.351562 C 285.40625 650.960938 280.042969 656.320312 273.429688 656.320312 Z M 273.429688 656.320312 " fill-opacity="1" fill-rule="nonzero"/></svg>